<svg xmlns="http://www.w3.org/2000/svg" xml:space="preserve" viewBox="0 0 511.999 511.999">
  <path d="M74.025 230.686h363.959v69.125H74.025z" style="fill:#b26b4d"/>
  <path d="M399.245 299.809H112.753l24.621 168.954c2.756 18.905 20.6 33.038 41.717 33.038h153.817c21.115 0 38.961-14.133 41.716-33.038l24.621-168.954z" style="fill:#b26b4d"/>
  <path d="M255.999 156.32h-39.442c-58.917 0-106.679-47.762-106.679-106.679V10.199h39.442c58.917 0 106.679 47.762 106.679 106.679v39.442zM255.999 156.32h39.442c58.917 0 106.679-47.762 106.679-106.679V10.199h-39.442c-58.917 0-106.679 47.762-106.679 106.679v39.442z" style="fill:#76b24d"/>
  <path d="M437.975 220.484H266.198v-53.965h29.242c64.447 0 116.878-52.431 116.878-116.878V10.199C412.318 4.566 407.752 0 402.119 0h-39.441c-47.453 0-88.388 28.427-106.679 69.146C237.709 28.427 196.773 0 149.32 0h-39.441C104.246 0 99.68 4.566 99.68 10.199V49.64c0 64.447 52.431 116.878 116.878 116.878H245.8v53.965H74.023c-5.633 0-10.199 4.566-10.199 10.199v69.125c0 5.633 4.566 10.199 10.199 10.199h29.91l23.349 160.225c3.47 23.811 25.743 41.767 51.809 41.767h153.817c26.066 0 48.339-17.956 51.809-41.767l23.349-160.225h29.91c5.633 0 10.199-4.566 10.199-10.199v-69.125c-.001-5.631-4.567-10.198-10.2-10.198zM362.678 20.398h29.242V49.64c0 53.199-43.28 96.479-96.479 96.479h-14.818l54.754-54.754c3.983-3.983 3.983-10.441 0-14.425-3.983-3.982-10.441-3.982-14.425 0l-54.753 54.755v-14.818c-.001-53.198 43.279-96.479 96.479-96.479zM120.077 49.641V20.398h29.242c53.2 0 96.48 43.28 96.48 96.479v14.818L163.15 49.046c-3.983-3.983-10.441-3.983-14.425 0-3.983 3.983-3.983 10.441 0 14.425l82.649 82.649h-14.818c-53.198.001-96.479-43.279-96.479-96.479zm244.454 417.651c-2.019 13.859-15.615 24.31-31.624 24.31H179.091c-16.009 0-29.604-10.451-31.624-24.31l-22.921-157.284h262.905l-22.92 157.284zM84.222 289.609v-48.727h343.555v48.727H84.222z" style="fill:#5e282d"/>
  <path d="M352.052 70.465c2.61 0 5.22-.995 7.212-2.987l4.008-4.007c3.983-3.983 3.984-10.44 0-14.424-3.983-3.983-10.44-3.984-14.424 0l-4.008 4.007c-3.983 3.983-3.984 10.44 0 14.424a10.163 10.163 0 0 0 7.212 2.987z" style="fill:#5e282d"/>
</svg>
