<svg xmlns="http://www.w3.org/2000/svg" xml:space="preserve" viewBox="0 0 512 512">
  <path d="m352.579 202.418-109.841 22.175 15.906-156.258-99.223 228.03 110.273-22.26-37.483 169.56z" style="fill:#ffba7a"/>
  <path d="M228.808 453.28a10.202 10.202 0 0 0 12.529-5.061l120.369-241.247a10.2 10.2 0 0 0-11.145-14.551l-96.276 19.436L268.79 69.368a10.2 10.2 0 0 0-19.499-5.102l-99.223 228.031a10.2 10.2 0 0 0 11.371 14.067l94.916-19.161-34.102 154.262a10.197 10.197 0 0 0 6.555 11.815zm-52.23-170.783 65.287-150.039-9.273 91.102a10.199 10.199 0 0 0 12.163 11.031l89.376-18.042-74.097 148.511 19.619-88.752a10.203 10.203 0 0 0-9.959-12.402c-.671 0-1.346.066-2.018.202l-91.098 18.389zM501.801 245.801c-5.632 0-10.199 4.566-10.199 10.199 0 2.917-.055 5.88-.161 8.806-.206 5.63 4.19 10.359 9.819 10.565.128.005.254.007.38.007 5.461 0 9.984-4.324 10.185-9.826.116-3.174.175-6.388.175-9.553 0-5.632-4.567-10.198-10.199-10.198z" style="fill:#5e282d"/>
  <path d="M496.208 309.379c-5.44-1.447-11.028 1.797-12.474 7.24C456.382 419.646 362.735 491.602 256 491.602c-57.598 0-112.031-20.54-154.962-58.135h32.571c5.632 0 10.199-4.566 10.199-10.199s-4.567-10.199-10.199-10.199H78.534c-5.632 0-10.199 4.566-10.199 10.199v55.076c0 5.633 4.567 10.199 10.199 10.199s10.199-4.566 10.199-10.199v-28.528C135.206 490.046 193.915 512 256 512c115.973 0 217.728-78.191 247.448-190.147 1.445-5.444-1.796-11.029-7.24-12.474zM256 20.398c59.647 0 115.901 22.028 159.5 62.215h-32.01c-5.632 0-10.199 4.566-10.199 10.199s4.567 10.199 10.199 10.199h55.076c5.632 0 10.199-4.566 10.199-10.199V37.737c0-5.633-4.567-10.199-10.199-10.199s-10.199 4.566-10.199 10.199v28.988C381.126 23.611 320.379 0 256 0 187.619 0 123.333 26.628 74.981 74.98 26.628 123.333 0 187.62 0 256c0 5.633 4.567 10.199 10.199 10.199S20.398 261.633 20.398 256C20.398 126.089 126.089 20.398 256 20.398z" style="fill:#5e282d"/>
</svg>
