<svg xmlns="http://www.w3.org/2000/svg" xml:space="preserve" viewBox="0 0 512 512">
  <path d="m256.958 347.597 22.874-22.874c34.167-34.167 26.912-73.54 6.428-117.303-10.618-22.685-6.76-51.724-6.76-51.724l-45.414 45.297c-34.167 34.167-34.167 89.563 0 123.731l22.872 22.873z" style="fill:#76b24d"/>
  <path d="m262.638 469.808-6.608-5.671c-4.274-3.67-10.713-3.179-14.383 1.093-3.67 4.273-3.18 10.713 1.093 14.383l6.622 5.682a10.163 10.163 0 0 0 6.633 2.455c2.874 0 5.731-1.209 7.748-3.562 3.667-4.275 3.171-10.713-1.105-14.38zM364.572 24.249c-41.758 0-80.677 17.235-108.572 47.685-27.895-30.45-66.813-47.685-108.572-47.685C66.137 24.249 0 90.386 0 171.679c0 73.278 76.407 159.304 140.504 218.569 10.698 9.891 31.734 28.434 62.522 55.111a10.153 10.153 0 0 0 6.674 2.491c2.856 0 5.695-1.192 7.713-3.52 3.689-4.257 3.228-10.699-1.029-14.387-30.623-26.534-51.494-44.93-62.032-54.673-50.026-46.255-133.954-134.211-133.954-203.591 0-70.045 56.986-127.031 127.03-127.031 39.595 0 76.229 17.986 100.506 49.347a10.196 10.196 0 0 0 16.129 0c24.278-31.361 60.911-49.347 100.506-49.347 70.046 0 127.032 56.986 127.032 127.031 0 27.659-16.011 63.851-47.587 107.568-30.171 41.773-67.469 80.036-87.016 99.125a51.268 51.268 0 0 1-32.302 14.456l-2.868.195c-14.428.989-28.162-3.934-38.687-13.847-8.131-7.658-13.363-17.414-15.235-28.104l19.137-19.137c18.088-18.089 26.821-38.474 26.694-62.319-.101-19.009-5.897-40.145-18.242-66.521-9.179-19.61-5.919-45.811-5.886-46.057a10.2 10.2 0 0 0-17.313-8.564l-45.424 45.306c-38.089 38.09-38.089 100.065 0 138.155l20.626 20.626c2.345 15.727 9.939 30.426 21.658 41.464 14.493 13.652 34.197 20.706 54.06 19.349l2.867-.195a71.683 71.683 0 0 0 45.167-20.213c24.451-23.878 59.791-60.919 89.3-101.775C494.69 243.925 512 203.714 512 171.679c0-81.293-66.137-147.43-147.428-147.43zM241.288 208.213l27.861-27.789c.887 9.801 3.067 21.053 7.873 31.319 22.955 49.043 21.679 79.686-4.402 105.768l-5.462 5.462v-49.511c0-5.632-4.566-10.199-10.199-10.199s-10.199 4.567-10.199 10.199v49.511l-5.462-5.462c-30.138-30.135-30.138-79.17-.01-109.298z" style="fill:#5e282d"/>
</svg>
